G04*
G04 #@! TF.GenerationSoftware,Altium Limited,Altium Designer,22.4.2 (48)*
G04*
G04 Layer_Color=65535*
%FSLAX25Y25*%
%MOIN*%
G70*
G04*
G04 #@! TF.SameCoordinates,CF3C407C-0524-4A2E-8B94-90E9F096BC4F*
G04*
G04*
G04 #@! TF.FilePolarity,Positive*
G04*
G01*
G75*
%ADD10C,0.01000*%
%ADD11C,0.00984*%
%ADD12C,0.00787*%
%ADD13C,0.00500*%
%ADD14C,0.01181*%
%ADD15C,0.01200*%
%ADD16R,0.06248X0.02000*%
D10*
X94499Y71500D02*
G03*
X94499Y71500I-2000J0D01*
G01*
X104499D02*
G03*
X104499Y71500I-2000J0D01*
G01*
X114499D02*
G03*
X114499Y71500I-2000J0D01*
G01*
X94499Y61500D02*
G03*
X94499Y61500I-2000J0D01*
G01*
X104499D02*
G03*
X104499Y61500I-2000J0D01*
G01*
X114499D02*
G03*
X114499Y61500I-2000J0D01*
G01*
X67499Y54500D02*
X97999D01*
X137499Y228500D02*
X137499Y54500D01*
X67499Y228500D02*
X137499D01*
X67499D02*
X67499Y54500D01*
X97999D02*
X137499D01*
X36999Y177000D02*
Y178999D01*
Y178000D01*
X31001D01*
X32001Y177000D01*
X229500Y28997D02*
Y22999D01*
X232499D01*
X233499Y23999D01*
Y27998D01*
X232499Y28997D01*
X229500D01*
X238497Y22999D02*
X236498D01*
X235498Y23999D01*
Y25998D01*
X236498Y26998D01*
X238497D01*
X239497Y25998D01*
Y24999D01*
X235498D01*
X241496Y22999D02*
X244495D01*
X245495Y23999D01*
X244495Y24999D01*
X242496D01*
X241496Y25998D01*
X242496Y26998D01*
X245495D01*
X247494Y22999D02*
X249494D01*
X248494D01*
Y26998D01*
X247494D01*
X254492Y21000D02*
X255492D01*
X256491Y22000D01*
Y26998D01*
X253492D01*
X252493Y25998D01*
Y23999D01*
X253492Y22999D01*
X256491D01*
X258491D02*
Y26998D01*
X261490D01*
X262489Y25998D01*
Y22999D01*
X267488D02*
X265488D01*
X264489Y23999D01*
Y25998D01*
X265488Y26998D01*
X267488D01*
X268487Y25998D01*
Y24999D01*
X264489D01*
X274485Y28997D02*
Y22999D01*
X271486D01*
X270487Y23999D01*
Y25998D01*
X271486Y26998D01*
X274485D01*
X282483Y28997D02*
Y22999D01*
X285482D01*
X286482Y23999D01*
Y24999D01*
Y25998D01*
X285482Y26998D01*
X282483D01*
X288481D02*
Y23999D01*
X289481Y22999D01*
X292480D01*
Y22000D01*
X291480Y21000D01*
X290480D01*
X292480Y22999D02*
Y26998D01*
X300477Y22999D02*
Y26998D01*
X302476Y28997D01*
X304476Y26998D01*
Y22999D01*
Y25998D01*
X300477D01*
X306475Y28997D02*
Y22999D01*
X309474D01*
X310474Y23999D01*
Y24999D01*
Y25998D01*
X309474Y26998D01*
X306475D01*
X316472Y28997D02*
Y22999D01*
X313473D01*
X312473Y23999D01*
Y25998D01*
X313473Y26998D01*
X316472D01*
X318471D02*
Y23999D01*
X319471Y22999D01*
X322470D01*
Y26998D01*
X324469Y22999D02*
X326469D01*
X325469D01*
Y28997D01*
X324469D01*
X329468Y22999D02*
X331467D01*
X330467D01*
Y28997D01*
X329468D01*
X335466Y26998D02*
X337465D01*
X338465Y25998D01*
Y22999D01*
X335466D01*
X334466Y23999D01*
X335466Y24999D01*
X338465D01*
X340464Y28997D02*
Y22999D01*
Y25998D01*
X341464Y26998D01*
X343463D01*
X344463Y25998D01*
Y22999D01*
X352460D02*
Y28997D01*
X356459Y22999D01*
Y28997D01*
X359458Y26998D02*
X361457D01*
X362457Y25998D01*
Y22999D01*
X359458D01*
X358458Y23999D01*
X359458Y24999D01*
X362457D01*
X367455Y22999D02*
X365456D01*
X364456Y23999D01*
Y25998D01*
X365456Y26998D01*
X367455D01*
X368455Y25998D01*
Y24999D01*
X364456D01*
X373453Y22999D02*
X371454D01*
X370454Y23999D01*
Y25998D01*
X371454Y26998D01*
X373453D01*
X374453Y25998D01*
Y24999D01*
X370454D01*
X376452Y22999D02*
Y26998D01*
X377452D01*
X378452Y25998D01*
Y22999D01*
Y25998D01*
X379451Y26998D01*
X380451Y25998D01*
Y22999D01*
X209000Y42998D02*
X212999D01*
X210999D01*
Y37000D01*
X214998Y42998D02*
Y37000D01*
Y39999D01*
X215998Y40999D01*
X217997D01*
X218997Y39999D01*
Y37000D01*
X223995D02*
X221996D01*
X220996Y38000D01*
Y39999D01*
X221996Y40999D01*
X223995D01*
X224995Y39999D01*
Y38999D01*
X220996D01*
X232992Y37000D02*
Y42998D01*
X235991D01*
X236991Y41998D01*
Y39999D01*
X235991Y38999D01*
X232992D01*
X239990Y37000D02*
X241989D01*
X242989Y38000D01*
Y39999D01*
X241989Y40999D01*
X239990D01*
X238990Y39999D01*
Y38000D01*
X239990Y37000D01*
X244988D02*
X246988D01*
X245988D01*
Y42998D01*
X244988D01*
X252986Y37000D02*
X250986D01*
X249987Y38000D01*
Y39999D01*
X250986Y40999D01*
X252986D01*
X253985Y39999D01*
Y38999D01*
X249987D01*
X261983Y37000D02*
Y42998D01*
X263982Y40999D01*
X265982Y42998D01*
Y37000D01*
X268981Y40999D02*
X270980D01*
X271980Y39999D01*
Y37000D01*
X268981D01*
X267981Y38000D01*
X268981Y38999D01*
X271980D01*
X273979Y37000D02*
Y40999D01*
X276978D01*
X277978Y39999D01*
Y37000D01*
X285975D02*
Y42998D01*
X287974Y40999D01*
X289974Y42998D01*
Y37000D01*
X292973Y40999D02*
X294972D01*
X295972Y39999D01*
Y37000D01*
X292973D01*
X291973Y38000D01*
X292973Y38999D01*
X295972D01*
X297971Y37000D02*
X299971D01*
X298971D01*
Y40999D01*
X297971D01*
X302970Y37000D02*
Y40999D01*
X305969D01*
X306968Y39999D01*
Y37000D01*
X308968Y42998D02*
Y37000D01*
X311967D01*
X312966Y38000D01*
Y38999D01*
Y39999D01*
X311967Y40999D01*
X308968D01*
X315965Y37000D02*
X317965D01*
X318964Y38000D01*
Y39999D01*
X317965Y40999D01*
X315965D01*
X314966Y39999D01*
Y38000D01*
X315965Y37000D01*
X321964Y40999D02*
X323963D01*
X324962Y39999D01*
Y37000D01*
X321964D01*
X320964Y38000D01*
X321964Y38999D01*
X324962D01*
X326962Y40999D02*
Y37000D01*
Y38999D01*
X327961Y39999D01*
X328961Y40999D01*
X329961D01*
X336959Y42998D02*
Y37000D01*
X333960D01*
X332960Y38000D01*
Y39999D01*
X333960Y40999D01*
X336959D01*
X17599Y187400D02*
Y191336D01*
X19567D01*
X20223Y190680D01*
Y189368D01*
X19567Y188712D01*
X17599D01*
X18911D02*
X20223Y187400D01*
X21535D02*
X22847D01*
X22191D01*
Y191336D01*
X21535Y190680D01*
X24815Y187400D02*
X26127D01*
X25471D01*
Y191336D01*
X24815Y190680D01*
X265099Y133400D02*
Y137336D01*
X267067D01*
X267723Y136680D01*
Y135368D01*
X267067Y134712D01*
X265099D01*
X266411D02*
X267723Y133400D01*
X269035D02*
X270347D01*
X269691D01*
Y137336D01*
X269035Y136680D01*
X272315D02*
X272971Y137336D01*
X274283D01*
X274938Y136680D01*
Y134056D01*
X274283Y133400D01*
X272971D01*
X272315Y134056D01*
Y136680D01*
X153381Y207796D02*
Y203860D01*
X155349D01*
X156005Y204516D01*
Y205172D01*
X155349Y205828D01*
X153381D01*
X155349D01*
X156005Y206484D01*
Y207140D01*
X155349Y207796D01*
X153381D01*
X157317D02*
Y204516D01*
X157973Y203860D01*
X159284D01*
X159940Y204516D01*
Y207796D01*
X161252D02*
X163876D01*
X162564D01*
Y203860D01*
X165188Y203204D02*
X167812D01*
X171748Y207140D02*
X171092Y207796D01*
X169780D01*
X169124Y207140D01*
Y204516D01*
X169780Y203860D01*
X171092D01*
X171748Y204516D01*
X175683Y207140D02*
X175027Y207796D01*
X173715D01*
X173060Y207140D01*
Y204516D01*
X173715Y203860D01*
X175027D01*
X175683Y204516D01*
X176995Y207796D02*
Y203860D01*
X178307Y205172D01*
X179619Y203860D01*
Y207796D01*
X158349Y187296D02*
Y183360D01*
X160317D01*
X160973Y184016D01*
Y184672D01*
X160317Y185328D01*
X158349D01*
X160317D01*
X160973Y185984D01*
Y186640D01*
X160317Y187296D01*
X158349D01*
X162285D02*
Y184016D01*
X162940Y183360D01*
X164252D01*
X164908Y184016D01*
Y187296D01*
X166220D02*
X168844D01*
X167532D01*
Y183360D01*
X170156Y182704D02*
X172780D01*
X176716Y186640D02*
X176060Y187296D01*
X174748D01*
X174092Y186640D01*
Y184016D01*
X174748Y183360D01*
X176060D01*
X176716Y184016D01*
X180651Y186640D02*
X179995Y187296D01*
X178683D01*
X178027Y186640D01*
Y184016D01*
X178683Y183360D01*
X179995D01*
X180651Y184016D01*
X153880Y237860D02*
Y240484D01*
X155192Y241796D01*
X156504Y240484D01*
Y237860D01*
Y239828D01*
X153880D01*
X157816Y241796D02*
Y238516D01*
X158472Y237860D01*
X159784D01*
X160440Y238516D01*
Y241796D01*
X161751D02*
X164375D01*
X163063D01*
Y237860D01*
X167655Y241796D02*
X166343D01*
X165687Y241140D01*
Y238516D01*
X166343Y237860D01*
X167655D01*
X168311Y238516D01*
Y241140D01*
X167655Y241796D01*
X169623Y237204D02*
X172247D01*
X176182Y241796D02*
X173559D01*
Y237860D01*
X176182D01*
X173559Y239828D02*
X174871D01*
X177494Y237860D02*
Y241796D01*
X180118Y237860D01*
Y241796D01*
X235999Y217688D02*
Y220312D01*
X235343Y220968D01*
X234031D01*
X233375Y220312D01*
Y217688D01*
X234031Y217032D01*
X235343D01*
X234687Y218344D02*
X235999Y217032D01*
X235343D02*
X235999Y217688D01*
X237311Y217032D02*
X238623D01*
X237967D01*
Y220968D01*
X237311Y220312D01*
X274999Y226468D02*
X272375D01*
Y224500D01*
X273687D01*
X272375D01*
Y222532D01*
X276311D02*
X277623D01*
X276967D01*
Y226468D01*
X276311Y225812D01*
X217399Y227200D02*
X218711D01*
X218055D01*
Y231136D01*
X217399Y230480D01*
X223303Y227200D02*
X220679D01*
X223303Y229824D01*
Y230480D01*
X222647Y231136D01*
X221335D01*
X220679Y230480D01*
X224615Y231136D02*
Y228512D01*
X225926Y227200D01*
X227238Y228512D01*
Y231136D01*
X228550Y226544D02*
X231174D01*
X234454Y231136D02*
X233142D01*
X232486Y230480D01*
Y227856D01*
X233142Y227200D01*
X234454D01*
X235110Y227856D01*
Y230480D01*
X234454Y231136D01*
X176343Y56968D02*
X173719D01*
Y55000D01*
X175031D01*
X173719D01*
Y53032D01*
X177655D02*
Y55656D01*
X178967Y56968D01*
X180279Y55656D01*
Y53032D01*
Y55000D01*
X177655D01*
X30399Y261436D02*
Y258812D01*
X31711Y257500D01*
X33023Y258812D01*
Y261436D01*
X36959Y260780D02*
X36303Y261436D01*
X34991D01*
X34335Y260780D01*
Y258156D01*
X34991Y257500D01*
X36303D01*
X36959Y258156D01*
X40894Y260780D02*
X40238Y261436D01*
X38927D01*
X38271Y260780D01*
Y258156D01*
X38927Y257500D01*
X40238D01*
X40894Y258156D01*
X24751Y162532D02*
Y166468D01*
X26719D01*
X27375Y165812D01*
Y164500D01*
X26719Y163844D01*
X24751D01*
X30655Y166468D02*
X29343D01*
X28687Y165812D01*
Y163188D01*
X29343Y162532D01*
X30655D01*
X31311Y163188D01*
Y165812D01*
X30655Y166468D01*
X32623D02*
X35247D01*
X33935D01*
Y162532D01*
X27375Y146812D02*
X26719Y147468D01*
X25407D01*
X24751Y146812D01*
Y146156D01*
X25407Y145500D01*
X26719D01*
X27375Y144844D01*
Y144188D01*
X26719Y143532D01*
X25407D01*
X24751Y144188D01*
X28687Y147468D02*
Y143532D01*
X30655D01*
X31311Y144188D01*
Y146812D01*
X30655Y147468D01*
X28687D01*
X32623Y143532D02*
Y146156D01*
X33935Y147468D01*
X35247Y146156D01*
Y143532D01*
Y145500D01*
X32623D01*
X155252Y130532D02*
Y134468D01*
X157220D01*
X157876Y133812D01*
Y132500D01*
X157220Y131844D01*
X155252D01*
X156564D02*
X157876Y130532D01*
X161812Y133812D02*
X161156Y134468D01*
X159844D01*
X159188Y133812D01*
Y131188D01*
X159844Y130532D01*
X161156D01*
X161812Y131188D01*
Y132500D01*
X160500D01*
X163124Y134468D02*
Y130532D01*
X165092D01*
X165748Y131188D01*
Y131844D01*
X165092Y132500D01*
X163124D01*
X165092D01*
X165748Y133156D01*
Y133812D01*
X165092Y134468D01*
X163124D01*
X28375Y133312D02*
X27719Y133968D01*
X26407D01*
X25751Y133312D01*
Y132656D01*
X26407Y132000D01*
X27719D01*
X28375Y131344D01*
Y130688D01*
X27719Y130032D01*
X26407D01*
X25751Y130688D01*
X32311Y133312D02*
X31655Y133968D01*
X30343D01*
X29687Y133312D01*
Y130688D01*
X30343Y130032D01*
X31655D01*
X32311Y130688D01*
X33623Y133968D02*
Y130032D01*
X36247D01*
X323867Y178436D02*
X322555D01*
X321899Y177780D01*
Y175156D01*
X322555Y174500D01*
X323867D01*
X324523Y175156D01*
Y177780D01*
X323867Y178436D01*
X325835D02*
Y175156D01*
X326491Y174500D01*
X327803D01*
X328459Y175156D01*
Y178436D01*
X329771D02*
X332394D01*
X331083D01*
Y174500D01*
X333706Y176468D02*
X336330D01*
X370752Y173968D02*
X369440D01*
X368784Y173312D01*
Y170688D01*
X369440Y170032D01*
X370752D01*
X371408Y170688D01*
Y173312D01*
X370752Y173968D01*
X372720D02*
Y170688D01*
X373376Y170032D01*
X374688D01*
X375344Y170688D01*
Y173968D01*
X376656D02*
X379280D01*
X377968D01*
Y170032D01*
X380592Y172000D02*
X383215D01*
X381904Y173312D02*
Y170688D01*
X169344Y103468D02*
X166720D01*
Y99532D01*
X169344D01*
X166720Y101500D02*
X168032D01*
X170656Y99532D02*
Y103468D01*
X173280Y99532D01*
Y103468D01*
X147375Y56812D02*
X146719Y57468D01*
X145407D01*
X144751Y56812D01*
Y56156D01*
X145407Y55500D01*
X146719D01*
X147375Y54844D01*
Y54188D01*
X146719Y53532D01*
X145407D01*
X144751Y54188D01*
X148687Y57468D02*
Y53532D01*
X151311D01*
X152623D02*
Y57468D01*
X154591D01*
X155247Y56812D01*
Y55500D01*
X154591Y54844D01*
X152623D01*
X166220Y115532D02*
Y119468D01*
X168188D01*
X168844Y118812D01*
Y117500D01*
X168188Y116844D01*
X166220D01*
X170156Y119468D02*
Y115532D01*
Y117500D01*
X172780D01*
Y119468D01*
Y115532D01*
X249344Y123968D02*
X246720D01*
Y122000D01*
X248032Y122656D01*
X248688D01*
X249344Y122000D01*
Y120688D01*
X248688Y120032D01*
X247376D01*
X246720Y120688D01*
X250656Y123968D02*
Y121344D01*
X251968Y120032D01*
X253280Y121344D01*
Y123968D01*
X279252Y143468D02*
Y139532D01*
X281220D01*
X281876Y140188D01*
Y140844D01*
X281220Y141500D01*
X279252D01*
X281220D01*
X281876Y142156D01*
Y142812D01*
X281220Y143468D01*
X279252D01*
X285812D02*
X284500Y142812D01*
X283188Y141500D01*
Y140188D01*
X283844Y139532D01*
X285156D01*
X285812Y140188D01*
Y140844D01*
X285156Y141500D01*
X283188D01*
X287124Y143468D02*
Y140844D01*
X288436Y139532D01*
X289748Y140844D01*
Y143468D01*
X300800Y222860D02*
X302112D01*
X301456D01*
Y226796D01*
X300800Y226140D01*
X306703Y222860D02*
X304079D01*
X306703Y225484D01*
Y226140D01*
X306047Y226796D01*
X304735D01*
X304079Y226140D01*
X308015Y226796D02*
Y224172D01*
X309327Y222860D01*
X310639Y224172D01*
Y226796D01*
X311951Y222204D02*
X314575D01*
X315887Y226796D02*
X317198D01*
X316543D01*
Y222860D01*
X315887D01*
X317198D01*
X156720Y158532D02*
Y162468D01*
X158032Y161156D01*
X159344Y162468D01*
Y158532D01*
X162624Y162468D02*
X161312D01*
X160656Y161812D01*
Y159188D01*
X161312Y158532D01*
X162624D01*
X163280Y159188D01*
Y161812D01*
X162624Y162468D01*
X144720Y223032D02*
Y226968D01*
X146688D01*
X147344Y226312D01*
Y225000D01*
X146688Y224344D01*
X144720D01*
X146032D02*
X147344Y223032D01*
X148656Y223688D02*
X149312Y223032D01*
X150624D01*
X151280Y223688D01*
Y226312D01*
X150624Y226968D01*
X149312D01*
X148656Y226312D01*
Y225656D01*
X149312Y225000D01*
X151280D01*
X143468Y186220D02*
X139532D01*
Y188188D01*
X140188Y188844D01*
X141500D01*
X142156Y188188D01*
Y186220D01*
Y187532D02*
X143468Y188844D01*
X140188Y190156D02*
X139532Y190812D01*
Y192124D01*
X140188Y192780D01*
X140844D01*
X141500Y192124D01*
X142156Y192780D01*
X142812D01*
X143468Y192124D01*
Y190812D01*
X142812Y190156D01*
X142156D01*
X141500Y190812D01*
X140844Y190156D01*
X140188D01*
X141500Y190812D02*
Y192124D01*
X143468Y175220D02*
X139532D01*
Y177188D01*
X140188Y177844D01*
X141500D01*
X142156Y177188D01*
Y175220D01*
Y176532D02*
X143468Y177844D01*
X139532Y179156D02*
Y181780D01*
X140188D01*
X142812Y179156D01*
X143468D01*
X142467Y163720D02*
X138531D01*
Y165688D01*
X139187Y166344D01*
X140499D01*
X141155Y165688D01*
Y163720D01*
Y165032D02*
X142467Y166344D01*
X138531Y170280D02*
X139187Y168968D01*
X140499Y167656D01*
X141811D01*
X142467Y168312D01*
Y169624D01*
X141811Y170280D01*
X141155D01*
X140499Y169624D01*
Y167656D01*
X212220Y82532D02*
Y86468D01*
X214188D01*
X214844Y85812D01*
Y84500D01*
X214188Y83844D01*
X212220D01*
X213532D02*
X214844Y82532D01*
X218780Y86468D02*
X216156D01*
Y84500D01*
X217468Y85156D01*
X218124D01*
X218780Y84500D01*
Y83188D01*
X218124Y82532D01*
X216812D01*
X216156Y83188D01*
X210720Y113032D02*
Y116968D01*
X212688D01*
X213344Y116312D01*
Y115000D01*
X212688Y114344D01*
X210720D01*
X212032D02*
X213344Y113032D01*
X216624D02*
Y116968D01*
X214656Y115000D01*
X217280D01*
X258360Y113312D02*
X257704Y113968D01*
X256392D01*
X255736Y113312D01*
Y110688D01*
X256392Y110032D01*
X257704D01*
X258360Y110688D01*
X259672Y110032D02*
X260984D01*
X260328D01*
Y113968D01*
X259672Y113312D01*
X262952Y110032D02*
X264264D01*
X263608D01*
Y113968D01*
X262952Y113312D01*
X273703Y92812D02*
X273047Y93468D01*
X271735D01*
X271079Y92812D01*
Y90188D01*
X271735Y89532D01*
X273047D01*
X273703Y90188D01*
X275015Y89532D02*
X276327D01*
X275671D01*
Y93468D01*
X275015Y92812D01*
X278295D02*
X278951Y93468D01*
X280263D01*
X280919Y92812D01*
Y90188D01*
X280263Y89532D01*
X278951D01*
X278295Y90188D01*
Y92812D01*
X275843Y104812D02*
X275187Y105468D01*
X273875D01*
X273219Y104812D01*
Y102188D01*
X273875Y101532D01*
X275187D01*
X275843Y102188D01*
X277155D02*
X277811Y101532D01*
X279123D01*
X279779Y102188D01*
Y104812D01*
X279123Y105468D01*
X277811D01*
X277155Y104812D01*
Y104156D01*
X277811Y103500D01*
X279779D01*
X261343Y72312D02*
X260687Y72968D01*
X259375D01*
X258719Y72312D01*
Y69688D01*
X259375Y69032D01*
X260687D01*
X261343Y69688D01*
X262655Y72312D02*
X263311Y72968D01*
X264623D01*
X265279Y72312D01*
Y71656D01*
X264623Y71000D01*
X265279Y70344D01*
Y69688D01*
X264623Y69032D01*
X263311D01*
X262655Y69688D01*
Y70344D01*
X263311Y71000D01*
X262655Y71656D01*
Y72312D01*
X263311Y71000D02*
X264623D01*
X311343Y67765D02*
X310687Y68421D01*
X309375D01*
X308719Y67765D01*
Y65141D01*
X309375Y64485D01*
X310687D01*
X311343Y65141D01*
X312655Y68421D02*
X315279D01*
Y67765D01*
X312655Y65141D01*
Y64485D01*
X67999Y235936D02*
Y232656D01*
X68655Y232000D01*
X69967D01*
X70623Y232656D01*
Y235936D01*
X73903Y232000D02*
Y235936D01*
X71935Y233968D01*
X74559D01*
X210219Y150968D02*
Y147688D01*
X210875Y147032D01*
X212187D01*
X212843Y147688D01*
Y150968D01*
X214155Y150312D02*
X214811Y150968D01*
X216123D01*
X216779Y150312D01*
Y149656D01*
X216123Y149000D01*
X215467D01*
X216123D01*
X216779Y148344D01*
Y147688D01*
X216123Y147032D01*
X214811D01*
X214155Y147688D01*
X276219Y189968D02*
Y186688D01*
X276875Y186032D01*
X278187D01*
X278843Y186688D01*
Y189968D01*
X282779Y186032D02*
X280155D01*
X282779Y188656D01*
Y189312D01*
X282123Y189968D01*
X280811D01*
X280155Y189312D01*
X243375Y109968D02*
Y106688D01*
X244031Y106032D01*
X245343D01*
X245999Y106688D01*
Y109968D01*
X247311Y106032D02*
X248623D01*
X247967D01*
Y109968D01*
X247311Y109312D01*
X273720Y171032D02*
Y174968D01*
X275688D01*
X276344Y174312D01*
Y173000D01*
X275688Y172344D01*
X273720D01*
X275032D02*
X276344Y171032D01*
X277656Y174312D02*
X278312Y174968D01*
X279624D01*
X280280Y174312D01*
Y173656D01*
X279624Y173000D01*
X278968D01*
X279624D01*
X280280Y172344D01*
Y171688D01*
X279624Y171032D01*
X278312D01*
X277656Y171688D01*
X275719Y165032D02*
Y168968D01*
X277687D01*
X278343Y168312D01*
Y167000D01*
X277687Y166344D01*
X275719D01*
X277031D02*
X278343Y165032D01*
X282279D02*
X279655D01*
X282279Y167656D01*
Y168312D01*
X281623Y168968D01*
X280311D01*
X279655Y168312D01*
X266599Y197400D02*
Y201336D01*
X268567D01*
X269223Y200680D01*
Y199368D01*
X268567Y198712D01*
X266599D01*
X267911D02*
X269223Y197400D01*
X270535D02*
X271847D01*
X271191D01*
Y201336D01*
X270535Y200680D01*
X182876Y224468D02*
Y220532D01*
X185500D01*
X186812D02*
X188124D01*
X187468D01*
Y224468D01*
X186812Y223812D01*
X87844Y35468D02*
X86532D01*
X87188D01*
Y32188D01*
X86532Y31532D01*
X85876D01*
X85220Y32188D01*
X89156Y34812D02*
X89812Y35468D01*
X91124D01*
X91780Y34812D01*
Y34156D01*
X91124Y33500D01*
X90468D01*
X91124D01*
X91780Y32844D01*
Y32188D01*
X91124Y31532D01*
X89812D01*
X89156Y32188D01*
X352344Y246468D02*
X351032D01*
X351688D01*
Y243188D01*
X351032Y242532D01*
X350376D01*
X349720Y243188D01*
X356280Y242532D02*
X353656D01*
X356280Y245156D01*
Y245812D01*
X355624Y246468D01*
X354312D01*
X353656Y245812D01*
X281499Y255468D02*
X280187D01*
X280843D01*
Y252188D01*
X280187Y251532D01*
X279531D01*
X278875Y252188D01*
X282811Y251532D02*
X284123D01*
X283467D01*
Y255468D01*
X282811Y254812D01*
X27299Y216536D02*
Y212600D01*
Y214568D01*
X29923D01*
Y216536D01*
Y212600D01*
X31235D02*
X32547D01*
X31891D01*
Y216536D01*
X31235Y215880D01*
X236720Y203468D02*
Y199532D01*
X238688D01*
X239344Y200188D01*
Y202812D01*
X238688Y203468D01*
X236720D01*
X240656Y202812D02*
X241312Y203468D01*
X242624D01*
X243280Y202812D01*
Y202156D01*
X242624Y201500D01*
X241968D01*
X242624D01*
X243280Y200844D01*
Y200188D01*
X242624Y199532D01*
X241312D01*
X240656Y200188D01*
X243219Y166468D02*
Y162532D01*
X245187D01*
X245843Y163188D01*
Y165812D01*
X245187Y166468D01*
X243219D01*
X249779Y162532D02*
X247155D01*
X249779Y165156D01*
Y165812D01*
X249123Y166468D01*
X247811D01*
X247155Y165812D01*
X253623Y145032D02*
Y148968D01*
X251655D01*
X250999Y148312D01*
Y145688D01*
X251655Y145032D01*
X253623D01*
X249687Y148968D02*
X248375D01*
X249031D01*
Y145032D01*
X249687Y145688D01*
X190844Y145812D02*
X190188Y146468D01*
X188876D01*
X188220Y145812D01*
Y143188D01*
X188876Y142532D01*
X190188D01*
X190844Y143188D01*
X194780Y146468D02*
X193468Y145812D01*
X192156Y144500D01*
Y143188D01*
X192812Y142532D01*
X194124D01*
X194780Y143188D01*
Y143844D01*
X194124Y144500D01*
X192156D01*
X206844Y127312D02*
X206188Y127968D01*
X204876D01*
X204220Y127312D01*
Y124688D01*
X204876Y124032D01*
X206188D01*
X206844Y124688D01*
X210780Y127968D02*
X208156D01*
Y126000D01*
X209468Y126656D01*
X210124D01*
X210780Y126000D01*
Y124688D01*
X210124Y124032D01*
X208812D01*
X208156Y124688D01*
X281343Y161312D02*
X280687Y161968D01*
X279375D01*
X278719Y161312D01*
Y158688D01*
X279375Y158032D01*
X280687D01*
X281343Y158688D01*
X284623Y158032D02*
Y161968D01*
X282655Y160000D01*
X285279D01*
X259323Y206880D02*
X258667Y207536D01*
X257355D01*
X256699Y206880D01*
Y204256D01*
X257355Y203600D01*
X258667D01*
X259323Y204256D01*
X260635Y206880D02*
X261291Y207536D01*
X262603D01*
X263259Y206880D01*
Y206224D01*
X262603Y205568D01*
X261947D01*
X262603D01*
X263259Y204912D01*
Y204256D01*
X262603Y203600D01*
X261291D01*
X260635Y204256D01*
X239843Y176812D02*
X239187Y177468D01*
X237875D01*
X237219Y176812D01*
Y174188D01*
X237875Y173532D01*
X239187D01*
X239843Y174188D01*
X243779Y173532D02*
X241155D01*
X243779Y176156D01*
Y176812D01*
X243123Y177468D01*
X241811D01*
X241155Y176812D01*
X231999Y137812D02*
X231343Y138468D01*
X230031D01*
X229375Y137812D01*
Y135188D01*
X230031Y134532D01*
X231343D01*
X231999Y135188D01*
X233311Y134532D02*
X234623D01*
X233967D01*
Y138468D01*
X233311Y137812D01*
D11*
X244054Y225087D02*
G03*
X244054Y225087I-492J0D01*
G01*
X219298Y130815D02*
G03*
X219298Y130815I-492J0D01*
G01*
X252503Y176480D02*
G03*
X252503Y176480I-492J0D01*
G01*
X103869Y33307D02*
G03*
X103869Y33307I-492J0D01*
G01*
X246991Y182142D02*
G03*
X246991Y182142I-492J0D01*
G01*
X256011Y142563D02*
G03*
X256011Y142563I-492J0D01*
G01*
X102499Y189500D02*
X120499Y171500D01*
X84499D02*
X102499Y189500D01*
X84499Y171500D02*
X102499Y153500D01*
X120499Y171500D01*
X117499Y197500D02*
Y226500D01*
X87499Y197500D02*
X117499D01*
X87499D02*
Y226500D01*
D12*
X228357Y102449D02*
G03*
X228357Y102449I-394J0D01*
G01*
X250255Y212094D02*
Y215047D01*
X247302Y212094D02*
X250255D01*
Y220953D02*
Y223905D01*
X247302D02*
X250255D01*
X276113Y53067D02*
Y74967D01*
Y53067D02*
X284676D01*
X294322D02*
X302885D01*
Y74967D01*
X280985Y79839D02*
X284676D01*
X276113Y74967D02*
X280985Y79839D01*
X298013D02*
X302885Y74967D01*
X294322Y79839D02*
X298013D01*
X211031Y131898D02*
Y144102D01*
X214968Y131898D02*
Y144102D01*
X211031D02*
X214968D01*
X211031Y131898D02*
X214968D01*
X252897Y179532D02*
Y183468D01*
X265102Y179532D02*
Y183468D01*
X252897Y179532D02*
X265102D01*
X252897Y183468D02*
X265102D01*
X183893Y198205D02*
Y210606D01*
X233105Y198205D02*
Y210606D01*
X183893Y161394D02*
Y173795D01*
X233105Y161394D02*
Y173795D01*
X183893Y210606D02*
X233105D01*
X183893Y161394D02*
X233105D01*
X91861Y27401D02*
X100621D01*
X91861Y13228D02*
Y27401D01*
Y13228D02*
X100621D01*
X149440Y27402D02*
X158200D01*
Y13228D02*
Y27402D01*
X149440Y13228D02*
X158200D01*
X242562Y186472D02*
Y195528D01*
X250436Y186472D02*
Y195528D01*
X252448Y167000D02*
X258550D01*
Y162000D02*
Y167000D01*
X252448Y162000D02*
Y167000D01*
X257251Y145850D02*
Y149059D01*
X259850D01*
X268747Y145850D02*
Y149059D01*
X266149D02*
X268747D01*
X267121Y156547D02*
X269877D01*
X267318Y162453D02*
X269877D01*
D13*
X235838Y104024D02*
X253161D01*
X235838Y81976D02*
X253161D01*
D14*
X59499Y182000D02*
Y189972D01*
Y199028D02*
Y207000D01*
X29499Y182000D02*
Y190051D01*
Y199146D02*
Y207000D01*
D15*
X54499Y204500D02*
Y207000D01*
X29499D02*
X59499D01*
X29499Y182000D02*
X59499D01*
X34499Y204500D02*
Y207000D01*
Y204500D02*
X54499D01*
X56999Y207000D02*
X59499D01*
D16*
X255623Y166000D02*
D03*
M02*
