M48
;Layer_Color=9474304
;FILE_FORMAT=2:5
INCH,LZ
;TYPE=PLATED
T1F00S00C0.01181
T2F00S00C0.03543
T3F00S00C0.04000
T4F00S00C0.06409
T5F00S00C0.11811
%
T01
X0147999Y00815
X0241999Y00795
X0141999Y0071
X0081499Y0074842
X0078999Y01015
X01285Y01155
X0141125Y0183513
X01415Y01955
X0122999Y022
X00935Y01805
X0149Y01715
X0195Y015
X02045Y0149
X02235Y01495
X0232499Y0114
X021818Y010522
X01945Y013
X0185499Y0138
X02725Y0137
X0277Y0151
X0365999Y0146
T02
X0034499Y01945
X0044499
X0054499
T03
X0072499Y00715
Y00815
X0132499
Y00715
Y00915
Y01015
Y01115
Y01215
Y01315
Y01415
Y01515
Y01615
Y01715
Y01815
Y01915
Y02015
Y02115
X0072499
Y02015
Y01915
Y01815
Y01715
Y01615
Y01515
Y01415
Y01315
Y01215
Y01115
Y01015
Y00915
T04
X0342999Y02565
X0362499
X0265499Y0254
X0245999
T05
X0383Y0011
X0011
X0383Y02605
X0011
M30
