G04*
G04 #@! TF.GenerationSoftware,Altium Limited,Altium Designer,22.4.2 (48)*
G04*
G04 Layer_Color=8388736*
%FSLAX25Y25*%
%MOIN*%
G70*
G04*
G04 #@! TF.SameCoordinates,CF3C407C-0524-4A2E-8B94-90E9F096BC4F*
G04*
G04*
G04 #@! TF.FilePolarity,Negative*
G04*
G01*
G75*
%ADD32R,0.04331X0.07874*%
%ADD33R,0.03150X0.03150*%
%ADD38R,0.04343X0.03556*%
%ADD39R,0.03556X0.04343*%
%ADD40R,0.14580X0.08674*%
%ADD41R,0.04737X0.03162*%
%ADD42R,0.07887X0.05918*%
%ADD43R,0.04343X0.03950*%
%ADD44R,0.03950X0.04343*%
%ADD45R,0.08083X0.13792*%
G04:AMPARAMS|DCode=46|XSize=33.59mil|YSize=55.24mil|CornerRadius=5.92mil|HoleSize=0mil|Usage=FLASHONLY|Rotation=270.000|XOffset=0mil|YOffset=0mil|HoleType=Round|Shape=RoundedRectangle|*
%AMROUNDEDRECTD46*
21,1,0.03359,0.04341,0,0,270.0*
21,1,0.02175,0.05524,0,0,270.0*
1,1,0.01184,-0.02170,-0.01088*
1,1,0.01184,-0.02170,0.01088*
1,1,0.01184,0.02170,0.01088*
1,1,0.01184,0.02170,-0.01088*
%
%ADD46ROUNDEDRECTD46*%
G04:AMPARAMS|DCode=47|XSize=29.65mil|YSize=39.5mil|CornerRadius=5.95mil|HoleSize=0mil|Usage=FLASHONLY|Rotation=180.000|XOffset=0mil|YOffset=0mil|HoleType=Round|Shape=RoundedRectangle|*
%AMROUNDEDRECTD47*
21,1,0.02965,0.02760,0,0,180.0*
21,1,0.01776,0.03950,0,0,180.0*
1,1,0.01190,-0.00888,0.01380*
1,1,0.01190,0.00888,0.01380*
1,1,0.01190,0.00888,-0.01380*
1,1,0.01190,-0.00888,-0.01380*
%
%ADD47ROUNDEDRECTD47*%
G04:AMPARAMS|DCode=48|XSize=69.81mil|YSize=24.14mil|CornerRadius=6.02mil|HoleSize=0mil|Usage=FLASHONLY|Rotation=0.000|XOffset=0mil|YOffset=0mil|HoleType=Round|Shape=RoundedRectangle|*
%AMROUNDEDRECTD48*
21,1,0.06981,0.01211,0,0,0.0*
21,1,0.05778,0.02414,0,0,0.0*
1,1,0.01204,0.02889,-0.00605*
1,1,0.01204,-0.02889,-0.00605*
1,1,0.01204,-0.02889,0.00605*
1,1,0.01204,0.02889,0.00605*
%
%ADD48ROUNDEDRECTD48*%
%ADD49R,0.10564X0.14186*%
%ADD50R,0.04343X0.04737*%
%ADD51R,0.12217X0.22060*%
%ADD52R,0.03162X0.07296*%
%ADD53R,0.03162X0.08083*%
%ADD54R,0.04540X0.04343*%
%ADD55R,0.03950X0.04343*%
%ADD56R,0.05131X0.07493*%
%ADD57R,0.05918X0.05131*%
%ADD58C,0.07800*%
%ADD59R,0.07800X0.07800*%
%ADD60C,0.12611*%
%ADD61R,0.07300X0.07300*%
%ADD62C,0.07300*%
%ADD63C,0.16548*%
%ADD64C,0.03950*%
D32*
X246499Y188441D02*
D03*
D33*
Y195921D02*
D03*
D38*
X19000Y182453D02*
D03*
Y176547D02*
D03*
X145999Y186500D02*
D03*
Y192405D02*
D03*
X145499Y175047D02*
D03*
Y180953D02*
D03*
Y164047D02*
D03*
Y169953D02*
D03*
X222999Y87047D02*
D03*
Y92953D02*
D03*
X221499Y109453D02*
D03*
Y103547D02*
D03*
X267999Y186547D02*
D03*
Y192453D02*
D03*
D39*
X271953Y128000D02*
D03*
X266047D02*
D03*
X150046Y215500D02*
D03*
X155952D02*
D03*
X268952Y171500D02*
D03*
X263046D02*
D03*
D40*
X158999Y196500D02*
D03*
Y176500D02*
D03*
X161499Y230000D02*
D03*
X224499Y217000D02*
D03*
X189999Y54500D02*
D03*
X37499Y248000D02*
D03*
X45999Y164500D02*
D03*
X46999Y146000D02*
D03*
X159499Y139500D02*
D03*
X47499Y131500D02*
D03*
X328999Y165000D02*
D03*
X367999Y163000D02*
D03*
X156499Y106500D02*
D03*
X164499Y55000D02*
D03*
X155999Y122000D02*
D03*
X238000Y122500D02*
D03*
X283500Y132000D02*
D03*
X309499Y214500D02*
D03*
X158499Y152500D02*
D03*
D41*
X251436Y218000D02*
D03*
X243562Y214260D02*
D03*
Y221740D02*
D03*
D42*
X265999Y228709D02*
D03*
Y217291D02*
D03*
D43*
X262999Y102256D02*
D03*
Y96744D02*
D03*
X269499Y100244D02*
D03*
Y105756D02*
D03*
X262999Y77244D02*
D03*
Y82756D02*
D03*
X199499Y142000D02*
D03*
Y147512D02*
D03*
Y135500D02*
D03*
Y129988D02*
D03*
X246999Y172744D02*
D03*
Y178256D02*
D03*
X225999Y133244D02*
D03*
Y138756D02*
D03*
D44*
X267755Y91500D02*
D03*
X262243D02*
D03*
D45*
X289499Y56906D02*
D03*
Y76000D02*
D03*
D46*
X207192Y134260D02*
D03*
Y141740D02*
D03*
X218806D02*
D03*
Y138000D02*
D03*
Y134260D02*
D03*
D47*
X255259Y176480D02*
D03*
X258999D02*
D03*
X262739D02*
D03*
Y186520D02*
D03*
X258999D02*
D03*
X255259D02*
D03*
D48*
X233200Y101957D02*
D03*
Y99398D02*
D03*
Y96839D02*
D03*
Y94279D02*
D03*
Y91720D02*
D03*
Y89161D02*
D03*
Y86602D02*
D03*
Y84043D02*
D03*
X255798D02*
D03*
Y86602D02*
D03*
Y89161D02*
D03*
Y91720D02*
D03*
Y94279D02*
D03*
Y96839D02*
D03*
Y99398D02*
D03*
Y101957D02*
D03*
D49*
X244499Y93000D02*
D03*
D50*
X263153Y166500D02*
D03*
X269846D02*
D03*
D51*
X189011Y186000D02*
D03*
X227987D02*
D03*
D52*
X146684Y12736D02*
D03*
X142747D02*
D03*
X138810D02*
D03*
X134873D02*
D03*
X130936D02*
D03*
X126999D02*
D03*
X123062D02*
D03*
X119125D02*
D03*
X115188D02*
D03*
X111251D02*
D03*
X107314D02*
D03*
X103377D02*
D03*
D53*
X146684Y27500D02*
D03*
X142747D02*
D03*
X138810D02*
D03*
X134873D02*
D03*
X130936D02*
D03*
X126999D02*
D03*
X123062D02*
D03*
X119125D02*
D03*
X115188D02*
D03*
X111251D02*
D03*
X107314D02*
D03*
X103377D02*
D03*
D54*
X255499Y158299D02*
D03*
X255499Y170701D02*
D03*
D55*
X259259Y142563D02*
D03*
X266739D02*
D03*
X262999Y150437D02*
D03*
D56*
X273814Y159500D02*
D03*
X263184D02*
D03*
D57*
X258999Y197650D02*
D03*
Y191350D02*
D03*
D58*
X72499Y211500D02*
D03*
Y201500D02*
D03*
Y191500D02*
D03*
Y181500D02*
D03*
Y171500D02*
D03*
Y161500D02*
D03*
Y151500D02*
D03*
Y141500D02*
D03*
Y131500D02*
D03*
Y121500D02*
D03*
Y111500D02*
D03*
Y101500D02*
D03*
Y91500D02*
D03*
Y81500D02*
D03*
Y71500D02*
D03*
X132499Y211500D02*
D03*
Y201500D02*
D03*
Y191500D02*
D03*
Y181500D02*
D03*
Y171500D02*
D03*
Y161500D02*
D03*
Y151500D02*
D03*
Y141500D02*
D03*
Y131500D02*
D03*
Y121500D02*
D03*
Y111500D02*
D03*
Y101500D02*
D03*
Y91500D02*
D03*
Y81500D02*
D03*
D59*
Y71500D02*
D03*
D60*
X342999Y256500D02*
D03*
X362499D02*
D03*
X245999Y254000D02*
D03*
X265499D02*
D03*
D61*
X34499Y194500D02*
D03*
D62*
X44499D02*
D03*
X54499D02*
D03*
D63*
X383000Y260500D02*
D03*
Y11000D02*
D03*
X11000D02*
D03*
Y260500D02*
D03*
D64*
X141125Y183513D02*
D03*
X149000Y171500D02*
D03*
X141500Y195500D02*
D03*
X195000Y150000D02*
D03*
X194500Y130000D02*
D03*
X204500Y149000D02*
D03*
X223500Y149500D02*
D03*
X81499Y74842D02*
D03*
X93500Y180500D02*
D03*
X128500Y115500D02*
D03*
X277000Y151000D02*
D03*
X272500Y137000D02*
D03*
X78999Y101500D02*
D03*
X185499Y138000D02*
D03*
X232499Y114000D02*
D03*
X218180Y105220D02*
D03*
X141999Y71000D02*
D03*
X365999Y146000D02*
D03*
X241999Y79500D02*
D03*
X122999Y220000D02*
D03*
X147999Y81500D02*
D03*
M02*
