G04*
G04 #@! TF.GenerationSoftware,Altium Limited,Altium Designer,22.4.2 (48)*
G04*
G04 Layer_Color=16711935*
%FSLAX25Y25*%
%MOIN*%
G70*
G04*
G04 #@! TF.SameCoordinates,CF3C407C-0524-4A2E-8B94-90E9F096BC4F*
G04*
G04*
G04 #@! TF.FilePolarity,Negative*
G04*
G01*
G75*
%ADD58C,0.07800*%
%ADD59R,0.07800X0.07800*%
%ADD60C,0.12611*%
%ADD61R,0.07300X0.07300*%
%ADD62C,0.07300*%
%ADD63C,0.16548*%
%ADD64C,0.03950*%
D58*
X72499Y211500D02*
D03*
Y201500D02*
D03*
Y191500D02*
D03*
Y181500D02*
D03*
Y171500D02*
D03*
Y161500D02*
D03*
Y151500D02*
D03*
Y141500D02*
D03*
Y131500D02*
D03*
Y121500D02*
D03*
Y111500D02*
D03*
Y101500D02*
D03*
Y91500D02*
D03*
Y81500D02*
D03*
Y71500D02*
D03*
X132499Y211500D02*
D03*
Y201500D02*
D03*
Y191500D02*
D03*
Y181500D02*
D03*
Y171500D02*
D03*
Y161500D02*
D03*
Y151500D02*
D03*
Y141500D02*
D03*
Y131500D02*
D03*
Y121500D02*
D03*
Y111500D02*
D03*
Y101500D02*
D03*
Y91500D02*
D03*
Y81500D02*
D03*
D59*
Y71500D02*
D03*
D60*
X342999Y256500D02*
D03*
X362499D02*
D03*
X245999Y254000D02*
D03*
X265499D02*
D03*
D61*
X34499Y194500D02*
D03*
D62*
X44499D02*
D03*
X54499D02*
D03*
D63*
X383000Y260500D02*
D03*
Y11000D02*
D03*
X11000D02*
D03*
Y260500D02*
D03*
D64*
X141125Y183513D02*
D03*
X149000Y171500D02*
D03*
X141500Y195500D02*
D03*
X195000Y150000D02*
D03*
X194500Y130000D02*
D03*
X204500Y149000D02*
D03*
X223500Y149500D02*
D03*
X81499Y74842D02*
D03*
X93500Y180500D02*
D03*
X128500Y115500D02*
D03*
X277000Y151000D02*
D03*
X272500Y137000D02*
D03*
X78999Y101500D02*
D03*
X185499Y138000D02*
D03*
X232499Y114000D02*
D03*
X218180Y105220D02*
D03*
X141999Y71000D02*
D03*
X365999Y146000D02*
D03*
X241999Y79500D02*
D03*
X122999Y220000D02*
D03*
X147999Y81500D02*
D03*
M02*
