G04*
G04 #@! TF.GenerationSoftware,Altium Limited,Altium Designer,22.4.2 (48)*
G04*
G04 Layer_Color=8421504*
%FSLAX25Y25*%
%MOIN*%
G70*
G04*
G04 #@! TF.SameCoordinates,CF3C407C-0524-4A2E-8B94-90E9F096BC4F*
G04*
G04*
G04 #@! TF.FilePolarity,Positive*
G04*
G01*
G75*
%ADD17R,0.03543X0.02756*%
%ADD18R,0.02756X0.03543*%
%ADD19R,0.13780X0.07874*%
%ADD20R,0.03937X0.02362*%
%ADD21R,0.07087X0.05118*%
%ADD22R,0.03543X0.03150*%
%ADD23R,0.03150X0.03543*%
%ADD24R,0.07284X0.12992*%
G04:AMPARAMS|DCode=25|XSize=25.59mil|YSize=47.24mil|CornerRadius=1.92mil|HoleSize=0mil|Usage=FLASHONLY|Rotation=270.000|XOffset=0mil|YOffset=0mil|HoleType=Round|Shape=RoundedRectangle|*
%AMROUNDEDRECTD25*
21,1,0.02559,0.04341,0,0,270.0*
21,1,0.02175,0.04724,0,0,270.0*
1,1,0.00384,-0.02170,-0.01088*
1,1,0.00384,-0.02170,0.01088*
1,1,0.00384,0.02170,0.01088*
1,1,0.00384,0.02170,-0.01088*
%
%ADD25ROUNDEDRECTD25*%
G04:AMPARAMS|DCode=26|XSize=21.65mil|YSize=31.5mil|CornerRadius=1.95mil|HoleSize=0mil|Usage=FLASHONLY|Rotation=180.000|XOffset=0mil|YOffset=0mil|HoleType=Round|Shape=RoundedRectangle|*
%AMROUNDEDRECTD26*
21,1,0.02165,0.02760,0,0,180.0*
21,1,0.01776,0.03150,0,0,180.0*
1,1,0.00390,-0.00888,0.01380*
1,1,0.00390,0.00888,0.01380*
1,1,0.00390,0.00888,-0.01380*
1,1,0.00390,-0.00888,-0.01380*
%
%ADD26ROUNDEDRECTD26*%
G04:AMPARAMS|DCode=27|XSize=61.81mil|YSize=16.14mil|CornerRadius=2.02mil|HoleSize=0mil|Usage=FLASHONLY|Rotation=0.000|XOffset=0mil|YOffset=0mil|HoleType=Round|Shape=RoundedRectangle|*
%AMROUNDEDRECTD27*
21,1,0.06181,0.01211,0,0,0.0*
21,1,0.05778,0.01614,0,0,0.0*
1,1,0.00404,0.02889,-0.00605*
1,1,0.00404,-0.02889,-0.00605*
1,1,0.00404,-0.02889,0.00605*
1,1,0.00404,0.02889,0.00605*
%
%ADD27ROUNDEDRECTD27*%
%ADD28R,0.03543X0.03937*%
%ADD29R,0.11417X0.21260*%
%ADD30R,0.02362X0.06496*%
%ADD31R,0.02362X0.07284*%
%ADD32R,0.04331X0.07874*%
%ADD33R,0.03150X0.03150*%
%ADD34R,0.03740X0.03543*%
%ADD35R,0.03150X0.03543*%
%ADD36R,0.04331X0.06693*%
%ADD37R,0.05118X0.04331*%
G36*
X247649Y88768D02*
X241350D01*
Y97232D01*
X247649D01*
Y88768D01*
D02*
G37*
D17*
X19000Y182453D02*
D03*
Y176547D02*
D03*
X145999Y186500D02*
D03*
Y192405D02*
D03*
X145499Y175047D02*
D03*
Y180953D02*
D03*
Y164047D02*
D03*
Y169953D02*
D03*
X222999Y87047D02*
D03*
Y92953D02*
D03*
X221499Y109453D02*
D03*
Y103547D02*
D03*
X267999Y186547D02*
D03*
Y192453D02*
D03*
D18*
X271953Y128000D02*
D03*
X266047D02*
D03*
X150046Y215500D02*
D03*
X155952D02*
D03*
X268952Y171500D02*
D03*
X263046D02*
D03*
D19*
X158999Y196500D02*
D03*
Y176500D02*
D03*
X161499Y230000D02*
D03*
X224499Y217000D02*
D03*
X189999Y54500D02*
D03*
X37499Y248000D02*
D03*
X45999Y164500D02*
D03*
X46999Y146000D02*
D03*
X159499Y139500D02*
D03*
X47499Y131500D02*
D03*
X328999Y165000D02*
D03*
X367999Y163000D02*
D03*
X156499Y106500D02*
D03*
X164499Y55000D02*
D03*
X155999Y122000D02*
D03*
X238000Y122500D02*
D03*
X283500Y132000D02*
D03*
X309499Y214500D02*
D03*
X158499Y152500D02*
D03*
D20*
X251436Y218000D02*
D03*
X243562Y214260D02*
D03*
Y221740D02*
D03*
D21*
X265999Y228709D02*
D03*
Y217291D02*
D03*
D22*
X262999Y102256D02*
D03*
Y96744D02*
D03*
X269499Y100244D02*
D03*
Y105756D02*
D03*
X262999Y77244D02*
D03*
Y82756D02*
D03*
X199499Y142000D02*
D03*
Y147512D02*
D03*
Y135500D02*
D03*
Y129988D02*
D03*
X246999Y172744D02*
D03*
Y178256D02*
D03*
X225999Y133244D02*
D03*
Y138756D02*
D03*
D23*
X267755Y91500D02*
D03*
X262243D02*
D03*
D24*
X289499Y56906D02*
D03*
Y76000D02*
D03*
D25*
X207192Y134260D02*
D03*
Y141740D02*
D03*
X218806D02*
D03*
Y138000D02*
D03*
Y134260D02*
D03*
D26*
X255259Y176480D02*
D03*
X258999D02*
D03*
X262739D02*
D03*
Y186520D02*
D03*
X258999D02*
D03*
X255259D02*
D03*
D27*
X233200Y101957D02*
D03*
Y99398D02*
D03*
Y96839D02*
D03*
Y94279D02*
D03*
Y91720D02*
D03*
Y89161D02*
D03*
Y86602D02*
D03*
Y84043D02*
D03*
X255798D02*
D03*
Y86602D02*
D03*
Y89161D02*
D03*
Y91720D02*
D03*
Y94279D02*
D03*
Y96839D02*
D03*
Y99398D02*
D03*
Y101957D02*
D03*
D28*
X263153Y166500D02*
D03*
X269846D02*
D03*
D29*
X189011Y186000D02*
D03*
X227987D02*
D03*
D30*
X146684Y12736D02*
D03*
X142747D02*
D03*
X138810D02*
D03*
X134873D02*
D03*
X130936D02*
D03*
X126999D02*
D03*
X123062D02*
D03*
X119125D02*
D03*
X115188D02*
D03*
X111251D02*
D03*
X107314D02*
D03*
X103377D02*
D03*
D31*
X146684Y27500D02*
D03*
X142747D02*
D03*
X138810D02*
D03*
X134873D02*
D03*
X130936D02*
D03*
X126999D02*
D03*
X123062D02*
D03*
X119125D02*
D03*
X115188D02*
D03*
X111251D02*
D03*
X107314D02*
D03*
X103377D02*
D03*
D32*
X246499Y188441D02*
D03*
D33*
Y195921D02*
D03*
D34*
X255499Y158299D02*
D03*
X255499Y170701D02*
D03*
D35*
X259259Y142563D02*
D03*
X266739D02*
D03*
X262999Y150437D02*
D03*
D36*
X273814Y159500D02*
D03*
X263184D02*
D03*
D37*
X258999Y197650D02*
D03*
Y191350D02*
D03*
M02*
