G04*
G04 #@! TF.GenerationSoftware,Altium Limited,Altium Designer,22.4.2 (48)*
G04*
G04 Layer_Physical_Order=2*
G04 Layer_Color=16711680*
%FSLAX25Y25*%
%MOIN*%
G70*
G04*
G04 #@! TF.SameCoordinates,CF3C407C-0524-4A2E-8B94-90E9F096BC4F*
G04*
G04*
G04 #@! TF.FilePolarity,Positive*
G04*
G01*
G75*
%ADD66C,0.01500*%
%ADD67C,0.07000*%
%ADD68R,0.07000X0.07000*%
%ADD69C,0.11811*%
%ADD70R,0.06500X0.06500*%
%ADD71C,0.06500*%
%ADD72C,0.15748*%
%ADD73C,0.03150*%
G36*
X391493Y264467D02*
X391003Y264369D01*
X390864Y264703D01*
X389893Y266157D01*
X388657Y267393D01*
X387203Y268364D01*
X385589Y269033D01*
X383874Y269374D01*
X383600D01*
Y260500D01*
Y251626D01*
X383874D01*
X385589Y251967D01*
X387203Y252636D01*
X388657Y253607D01*
X389893Y254843D01*
X390864Y256297D01*
X391003Y256631D01*
X391493Y256534D01*
Y14966D01*
X391003Y14869D01*
X390864Y15203D01*
X389893Y16657D01*
X388657Y17893D01*
X387203Y18864D01*
X385589Y19533D01*
X383874Y19874D01*
X383600D01*
Y11000D01*
X383000D01*
Y10400D01*
X374126D01*
Y10126D01*
X374467Y8411D01*
X375136Y6797D01*
X376107Y5343D01*
X377343Y4107D01*
X378797Y3136D01*
X380315Y2507D01*
X380216Y2007D01*
X13784D01*
X13685Y2507D01*
X15203Y3136D01*
X16657Y4107D01*
X17893Y5343D01*
X18864Y6797D01*
X19533Y8411D01*
X19874Y10126D01*
Y10400D01*
X11000D01*
Y11000D01*
X10400D01*
Y19874D01*
X10126D01*
X8411Y19533D01*
X6797Y18864D01*
X5343Y17893D01*
X4107Y16657D01*
X3136Y15203D01*
X2507Y13685D01*
X2007Y13784D01*
Y257716D01*
X2507Y257815D01*
X3136Y256297D01*
X4107Y254843D01*
X5343Y253607D01*
X6797Y252636D01*
X8411Y251967D01*
X10126Y251626D01*
X10400D01*
Y260500D01*
Y269374D01*
X10126D01*
X8411Y269033D01*
X6797Y268364D01*
X5343Y267393D01*
X4107Y266157D01*
X3136Y264703D01*
X2507Y263185D01*
X2007Y263284D01*
Y269993D01*
X391493D01*
Y264467D01*
D02*
G37*
%LPC*%
G36*
X382400Y269374D02*
X382126D01*
X380412Y269033D01*
X378797Y268364D01*
X377343Y267393D01*
X376107Y266157D01*
X375136Y264703D01*
X374467Y263088D01*
X374126Y261374D01*
Y261100D01*
X382400D01*
Y269374D01*
D02*
G37*
G36*
X11874D02*
X11600D01*
Y261100D01*
X19874D01*
Y261374D01*
X19533Y263088D01*
X18864Y264703D01*
X17893Y266157D01*
X16657Y267393D01*
X15203Y268364D01*
X13589Y269033D01*
X11874Y269374D01*
D02*
G37*
G36*
X246679Y260906D02*
X246599D01*
Y254600D01*
X252905D01*
Y254680D01*
X252639Y256014D01*
X252119Y257271D01*
X251363Y258402D01*
X250401Y259364D01*
X249270Y260120D01*
X248013Y260640D01*
X246679Y260906D01*
D02*
G37*
G36*
X245399D02*
X245319D01*
X243985Y260640D01*
X242728Y260120D01*
X241597Y259364D01*
X240635Y258402D01*
X239879Y257271D01*
X239359Y256014D01*
X239094Y254680D01*
Y254600D01*
X245399D01*
Y260906D01*
D02*
G37*
G36*
X382400Y259900D02*
X374126D01*
Y259626D01*
X374467Y257911D01*
X375136Y256297D01*
X376107Y254843D01*
X377343Y253607D01*
X378797Y252636D01*
X380412Y251967D01*
X382126Y251626D01*
X382400D01*
Y259900D01*
D02*
G37*
G36*
X19874D02*
X11600D01*
Y251626D01*
X11874D01*
X13589Y251967D01*
X15203Y252636D01*
X16657Y253607D01*
X17893Y254843D01*
X18864Y256297D01*
X19533Y257911D01*
X19874Y259626D01*
Y259900D01*
D02*
G37*
G36*
X363158Y263193D02*
X361840D01*
X360547Y262936D01*
X359329Y262431D01*
X358233Y261699D01*
X357300Y260767D01*
X356568Y259670D01*
X356063Y258452D01*
X355806Y257159D01*
Y255841D01*
X356063Y254548D01*
X356568Y253330D01*
X357300Y252234D01*
X358233Y251301D01*
X359329Y250569D01*
X360547Y250064D01*
X361840Y249807D01*
X363158D01*
X364451Y250064D01*
X365669Y250569D01*
X366766Y251301D01*
X367698Y252234D01*
X368430Y253330D01*
X368935Y254548D01*
X369192Y255841D01*
Y257159D01*
X368935Y258452D01*
X368430Y259670D01*
X367698Y260767D01*
X366766Y261699D01*
X365669Y262431D01*
X364451Y262936D01*
X363158Y263193D01*
D02*
G37*
G36*
X343658D02*
X342340D01*
X341047Y262936D01*
X339829Y262431D01*
X338733Y261699D01*
X337800Y260767D01*
X337068Y259670D01*
X336563Y258452D01*
X336306Y257159D01*
Y255841D01*
X336563Y254548D01*
X337068Y253330D01*
X337800Y252234D01*
X338733Y251301D01*
X339829Y250569D01*
X341047Y250064D01*
X342340Y249807D01*
X343658D01*
X344951Y250064D01*
X346169Y250569D01*
X347266Y251301D01*
X348198Y252234D01*
X348930Y253330D01*
X349435Y254548D01*
X349692Y255841D01*
Y257159D01*
X349435Y258452D01*
X348930Y259670D01*
X348198Y260767D01*
X347266Y261699D01*
X346169Y262431D01*
X344951Y262936D01*
X343658Y263193D01*
D02*
G37*
G36*
X266158Y260693D02*
X264840D01*
X263547Y260436D01*
X262329Y259931D01*
X261233Y259199D01*
X260300Y258266D01*
X259568Y257170D01*
X259063Y255952D01*
X258806Y254659D01*
Y253341D01*
X259063Y252048D01*
X259568Y250830D01*
X260300Y249733D01*
X261233Y248801D01*
X262329Y248069D01*
X263547Y247564D01*
X264840Y247307D01*
X266158D01*
X267451Y247564D01*
X268669Y248069D01*
X269766Y248801D01*
X270698Y249733D01*
X271430Y250830D01*
X271935Y252048D01*
X272192Y253341D01*
Y254659D01*
X271935Y255952D01*
X271430Y257170D01*
X270698Y258266D01*
X269766Y259199D01*
X268669Y259931D01*
X267451Y260436D01*
X266158Y260693D01*
D02*
G37*
G36*
X252905Y253400D02*
X246599D01*
Y247094D01*
X246679D01*
X248013Y247360D01*
X249270Y247880D01*
X250401Y248636D01*
X251363Y249598D01*
X252119Y250729D01*
X252639Y251986D01*
X252905Y253320D01*
Y253400D01*
D02*
G37*
G36*
X245399D02*
X239094D01*
Y253320D01*
X239359Y251986D01*
X239879Y250729D01*
X240635Y249598D01*
X241597Y248636D01*
X242728Y247880D01*
X243985Y247360D01*
X245319Y247094D01*
X245399D01*
Y253400D01*
D02*
G37*
G36*
X133063Y215787D02*
X131935D01*
X130844Y215495D01*
X129867Y214931D01*
X129068Y214132D01*
X128504Y213155D01*
X128212Y212065D01*
Y210936D01*
X128504Y209845D01*
X129068Y208868D01*
X129867Y208069D01*
X130844Y207505D01*
X131935Y207213D01*
X133063D01*
X134154Y207505D01*
X135132Y208069D01*
X135930Y208868D01*
X136494Y209845D01*
X136786Y210936D01*
Y212065D01*
X136494Y213155D01*
X135930Y214132D01*
X135132Y214931D01*
X134154Y215495D01*
X133063Y215787D01*
D02*
G37*
G36*
X73063D02*
X71935D01*
X70844Y215495D01*
X69867Y214931D01*
X69068Y214132D01*
X68504Y213155D01*
X68212Y212065D01*
Y210936D01*
X68504Y209845D01*
X69068Y208868D01*
X69867Y208069D01*
X70844Y207505D01*
X71935Y207213D01*
X73063D01*
X74154Y207505D01*
X75132Y208069D01*
X75930Y208868D01*
X76494Y209845D01*
X76787Y210936D01*
Y212065D01*
X76494Y213155D01*
X75930Y214132D01*
X75132Y214931D01*
X74154Y215495D01*
X73063Y215787D01*
D02*
G37*
G36*
X133063Y205787D02*
X131935D01*
X130844Y205495D01*
X129867Y204931D01*
X129068Y204133D01*
X128504Y203155D01*
X128212Y202064D01*
Y200936D01*
X128504Y199845D01*
X129068Y198867D01*
X129867Y198069D01*
X130844Y197505D01*
X131935Y197213D01*
X133063D01*
X134154Y197505D01*
X135132Y198069D01*
X135930Y198867D01*
X136494Y199845D01*
X136786Y200936D01*
Y202064D01*
X136494Y203155D01*
X135930Y204133D01*
X135132Y204931D01*
X134154Y205495D01*
X133063Y205787D01*
D02*
G37*
G36*
X73063D02*
X71935D01*
X70844Y205495D01*
X69867Y204931D01*
X69068Y204133D01*
X68504Y203155D01*
X68212Y202064D01*
Y200936D01*
X68504Y199845D01*
X69068Y198867D01*
X69867Y198069D01*
X70844Y197505D01*
X71935Y197213D01*
X73063D01*
X74154Y197505D01*
X75132Y198069D01*
X75930Y198867D01*
X76494Y199845D01*
X76787Y200936D01*
Y202064D01*
X76494Y203155D01*
X75930Y204133D01*
X75132Y204931D01*
X74154Y205495D01*
X73063Y205787D01*
D02*
G37*
G36*
X142100Y198005D02*
Y196100D01*
X144005D01*
X143899Y196494D01*
X143560Y197081D01*
X143081Y197560D01*
X142494Y197899D01*
X142100Y198005D01*
D02*
G37*
G36*
X140900D02*
X140506Y197899D01*
X139919Y197560D01*
X139440Y197081D01*
X139101Y196494D01*
X138995Y196100D01*
X140900D01*
Y198005D01*
D02*
G37*
G36*
X55099Y198739D02*
Y195100D01*
X58738D01*
X58460Y196141D01*
X57900Y197110D01*
X57109Y197901D01*
X56139Y198460D01*
X55099Y198739D01*
D02*
G37*
G36*
X53899D02*
X52859Y198460D01*
X51889Y197901D01*
X51098Y197110D01*
X50539Y196141D01*
X50260Y195100D01*
X53899D01*
Y198739D01*
D02*
G37*
G36*
X144005Y194900D02*
X142100D01*
Y192995D01*
X142494Y193101D01*
X143081Y193440D01*
X143560Y193919D01*
X143899Y194506D01*
X144005Y194900D01*
D02*
G37*
G36*
X140900D02*
X138995D01*
X139101Y194506D01*
X139440Y193919D01*
X139919Y193440D01*
X140506Y193101D01*
X140900Y192995D01*
Y194900D01*
D02*
G37*
G36*
X45031Y198537D02*
X43968D01*
X42941Y198262D01*
X42020Y197731D01*
X41268Y196979D01*
X40737Y196058D01*
X40462Y195031D01*
Y193968D01*
X40737Y192942D01*
X41268Y192021D01*
X42020Y191269D01*
X42941Y190738D01*
X43968Y190463D01*
X45031D01*
X46058Y190738D01*
X46978Y191269D01*
X47730Y192021D01*
X48261Y192942D01*
X48537Y193968D01*
Y195031D01*
X48261Y196058D01*
X47730Y196979D01*
X46978Y197731D01*
X46058Y198262D01*
X45031Y198537D01*
D02*
G37*
G36*
X38537D02*
X30462D01*
Y190463D01*
X38537D01*
Y198537D01*
D02*
G37*
G36*
X58738Y193900D02*
X55099D01*
Y190261D01*
X56139Y190540D01*
X57109Y191099D01*
X57900Y191891D01*
X58460Y192860D01*
X58738Y193900D01*
D02*
G37*
G36*
X53899D02*
X50260D01*
X50539Y192860D01*
X51098Y191891D01*
X51889Y191099D01*
X52859Y190540D01*
X53899Y190261D01*
Y193900D01*
D02*
G37*
G36*
X133063Y195787D02*
X131935D01*
X130844Y195495D01*
X129867Y194931D01*
X129068Y194132D01*
X128504Y193155D01*
X128212Y192064D01*
Y190936D01*
X128504Y189845D01*
X129068Y188867D01*
X129867Y188069D01*
X130844Y187505D01*
X131935Y187213D01*
X133063D01*
X134154Y187505D01*
X135132Y188069D01*
X135930Y188867D01*
X136494Y189845D01*
X136786Y190936D01*
Y192064D01*
X136494Y193155D01*
X135930Y194132D01*
X135132Y194931D01*
X134154Y195495D01*
X133063Y195787D01*
D02*
G37*
G36*
X73063D02*
X71935D01*
X70844Y195495D01*
X69867Y194931D01*
X69068Y194132D01*
X68504Y193155D01*
X68212Y192064D01*
Y190936D01*
X68504Y189845D01*
X69068Y188867D01*
X69867Y188069D01*
X70844Y187505D01*
X71935Y187213D01*
X73063D01*
X74154Y187505D01*
X75132Y188069D01*
X75930Y188867D01*
X76494Y189845D01*
X76787Y190936D01*
Y192064D01*
X76494Y193155D01*
X75930Y194132D01*
X75132Y194931D01*
X74154Y195495D01*
X73063Y195787D01*
D02*
G37*
G36*
X141725Y186018D02*
Y184113D01*
X143630D01*
X143524Y184507D01*
X143185Y185094D01*
X142706Y185573D01*
X142119Y185912D01*
X141725Y186018D01*
D02*
G37*
G36*
X140525D02*
X140131Y185912D01*
X139544Y185573D01*
X139065Y185094D01*
X138726Y184507D01*
X138620Y184113D01*
X140525D01*
Y186018D01*
D02*
G37*
G36*
X143630Y182913D02*
X141725D01*
Y181008D01*
X142119Y181114D01*
X142706Y181452D01*
X143185Y181932D01*
X143524Y182519D01*
X143630Y182913D01*
D02*
G37*
G36*
X140525D02*
X138620D01*
X138726Y182519D01*
X139065Y181932D01*
X139544Y181452D01*
X140131Y181114D01*
X140525Y181008D01*
Y182913D01*
D02*
G37*
G36*
X133063Y185787D02*
X131935D01*
X130844Y185495D01*
X129867Y184931D01*
X129068Y184133D01*
X128504Y183155D01*
X128212Y182064D01*
Y180936D01*
X128504Y179845D01*
X129068Y178867D01*
X129867Y178069D01*
X130844Y177505D01*
X131935Y177213D01*
X133063D01*
X134154Y177505D01*
X135132Y178069D01*
X135930Y178867D01*
X136494Y179845D01*
X136786Y180936D01*
Y182064D01*
X136494Y183155D01*
X135930Y184133D01*
X135132Y184931D01*
X134154Y185495D01*
X133063Y185787D01*
D02*
G37*
G36*
X73063D02*
X71935D01*
X70844Y185495D01*
X69867Y184931D01*
X69068Y184133D01*
X68504Y183155D01*
X68212Y182064D01*
Y180936D01*
X68504Y179845D01*
X69068Y178867D01*
X69867Y178069D01*
X70844Y177505D01*
X71935Y177213D01*
X73063D01*
X74154Y177505D01*
X75132Y178069D01*
X75930Y178867D01*
X76494Y179845D01*
X76787Y180936D01*
Y182064D01*
X76494Y183155D01*
X75930Y184133D01*
X75132Y184931D01*
X74154Y185495D01*
X73063Y185787D01*
D02*
G37*
G36*
X149600Y174005D02*
Y172100D01*
X151505D01*
X151399Y172494D01*
X151060Y173081D01*
X150581Y173560D01*
X149994Y173899D01*
X149600Y174005D01*
D02*
G37*
G36*
X148400D02*
X148006Y173899D01*
X147419Y173560D01*
X146940Y173081D01*
X146601Y172494D01*
X146495Y172100D01*
X148400D01*
Y174005D01*
D02*
G37*
G36*
X151505Y170900D02*
X149600D01*
Y168995D01*
X149994Y169101D01*
X150581Y169440D01*
X151060Y169919D01*
X151399Y170506D01*
X151505Y170900D01*
D02*
G37*
G36*
X148400D02*
X146495D01*
X146601Y170506D01*
X146940Y169919D01*
X147419Y169440D01*
X148006Y169101D01*
X148400Y168995D01*
Y170900D01*
D02*
G37*
G36*
X133063Y175787D02*
X131935D01*
X130844Y175495D01*
X129867Y174931D01*
X129068Y174133D01*
X128504Y173155D01*
X128212Y172064D01*
Y170936D01*
X128504Y169845D01*
X129068Y168868D01*
X129867Y168069D01*
X130844Y167505D01*
X131935Y167213D01*
X133063D01*
X134154Y167505D01*
X135132Y168069D01*
X135930Y168868D01*
X136494Y169845D01*
X136786Y170936D01*
Y172064D01*
X136494Y173155D01*
X135930Y174133D01*
X135132Y174931D01*
X134154Y175495D01*
X133063Y175787D01*
D02*
G37*
G36*
X73063D02*
X71935D01*
X70844Y175495D01*
X69867Y174931D01*
X69068Y174133D01*
X68504Y173155D01*
X68212Y172064D01*
Y170936D01*
X68504Y169845D01*
X69068Y168868D01*
X69867Y168069D01*
X70844Y167505D01*
X71935Y167213D01*
X73063D01*
X74154Y167505D01*
X75132Y168069D01*
X75930Y168868D01*
X76494Y169845D01*
X76787Y170936D01*
Y172064D01*
X76494Y173155D01*
X75930Y174133D01*
X75132Y174931D01*
X74154Y175495D01*
X73063Y175787D01*
D02*
G37*
G36*
X133063Y165787D02*
X131935D01*
X130844Y165495D01*
X129867Y164931D01*
X129068Y164132D01*
X128504Y163155D01*
X128212Y162065D01*
Y160936D01*
X128504Y159845D01*
X129068Y158868D01*
X129867Y158069D01*
X130844Y157505D01*
X131935Y157213D01*
X133063D01*
X134154Y157505D01*
X135132Y158069D01*
X135930Y158868D01*
X136494Y159845D01*
X136786Y160936D01*
Y162065D01*
X136494Y163155D01*
X135930Y164132D01*
X135132Y164931D01*
X134154Y165495D01*
X133063Y165787D01*
D02*
G37*
G36*
X73063D02*
X71935D01*
X70844Y165495D01*
X69867Y164931D01*
X69068Y164132D01*
X68504Y163155D01*
X68212Y162065D01*
Y160936D01*
X68504Y159845D01*
X69068Y158868D01*
X69867Y158069D01*
X70844Y157505D01*
X71935Y157213D01*
X73063D01*
X74154Y157505D01*
X75132Y158069D01*
X75930Y158868D01*
X76494Y159845D01*
X76787Y160936D01*
Y162065D01*
X76494Y163155D01*
X75930Y164132D01*
X75132Y164931D01*
X74154Y165495D01*
X73063Y165787D01*
D02*
G37*
G36*
X195600Y152505D02*
Y150600D01*
X197505D01*
X197399Y150994D01*
X197060Y151581D01*
X196581Y152060D01*
X195994Y152399D01*
X195600Y152505D01*
D02*
G37*
G36*
X194400D02*
X194006Y152399D01*
X193419Y152060D01*
X192940Y151581D01*
X192601Y150994D01*
X192495Y150600D01*
X194400D01*
Y152505D01*
D02*
G37*
G36*
X224100Y152005D02*
Y150100D01*
X226005D01*
X225899Y150494D01*
X225560Y151081D01*
X225081Y151560D01*
X224494Y151899D01*
X224100Y152005D01*
D02*
G37*
G36*
X222900D02*
X222506Y151899D01*
X221919Y151560D01*
X221440Y151081D01*
X221101Y150494D01*
X220995Y150100D01*
X222900D01*
Y152005D01*
D02*
G37*
G36*
X205100Y151505D02*
Y149600D01*
X207005D01*
X206899Y149994D01*
X206560Y150581D01*
X206081Y151060D01*
X205494Y151399D01*
X205100Y151505D01*
D02*
G37*
G36*
X203900D02*
X203506Y151399D01*
X202919Y151060D01*
X202440Y150581D01*
X202101Y149994D01*
X201995Y149600D01*
X203900D01*
Y151505D01*
D02*
G37*
G36*
X197505Y149400D02*
X195600D01*
Y147495D01*
X195994Y147601D01*
X196581Y147940D01*
X197060Y148419D01*
X197399Y149006D01*
X197505Y149400D01*
D02*
G37*
G36*
X194400D02*
X192495D01*
X192601Y149006D01*
X192940Y148419D01*
X193419Y147940D01*
X194006Y147601D01*
X194400Y147495D01*
Y149400D01*
D02*
G37*
G36*
X133063Y155787D02*
X131935D01*
X130844Y155495D01*
X129867Y154931D01*
X129068Y154132D01*
X128504Y153155D01*
X128212Y152065D01*
Y150936D01*
X128504Y149845D01*
X129068Y148867D01*
X129867Y148069D01*
X130844Y147505D01*
X131935Y147213D01*
X133063D01*
X134154Y147505D01*
X135132Y148069D01*
X135930Y148867D01*
X136494Y149845D01*
X136786Y150936D01*
Y152065D01*
X136494Y153155D01*
X135930Y154132D01*
X135132Y154931D01*
X134154Y155495D01*
X133063Y155787D01*
D02*
G37*
G36*
X73063D02*
X71935D01*
X70844Y155495D01*
X69867Y154931D01*
X69068Y154132D01*
X68504Y153155D01*
X68212Y152065D01*
Y150936D01*
X68504Y149845D01*
X69068Y148867D01*
X69867Y148069D01*
X70844Y147505D01*
X71935Y147213D01*
X73063D01*
X74154Y147505D01*
X75132Y148069D01*
X75930Y148867D01*
X76494Y149845D01*
X76787Y150936D01*
Y152065D01*
X76494Y153155D01*
X75930Y154132D01*
X75132Y154931D01*
X74154Y155495D01*
X73063Y155787D01*
D02*
G37*
G36*
X226005Y148900D02*
X224100D01*
Y146995D01*
X224494Y147101D01*
X225081Y147440D01*
X225560Y147919D01*
X225899Y148506D01*
X226005Y148900D01*
D02*
G37*
G36*
X222900D02*
X220995D01*
X221101Y148506D01*
X221440Y147919D01*
X221919Y147440D01*
X222506Y147101D01*
X222900Y146995D01*
Y148900D01*
D02*
G37*
G36*
X207005Y148400D02*
X205100D01*
Y146495D01*
X205494Y146601D01*
X206081Y146940D01*
X206560Y147419D01*
X206899Y148006D01*
X207005Y148400D01*
D02*
G37*
G36*
X203900D02*
X201995D01*
X202101Y148006D01*
X202440Y147419D01*
X202919Y146940D01*
X203506Y146601D01*
X203900Y146495D01*
Y148400D01*
D02*
G37*
G36*
X133063Y145787D02*
X131935D01*
X130844Y145495D01*
X129867Y144931D01*
X129068Y144132D01*
X128504Y143155D01*
X128212Y142064D01*
Y140936D01*
X128504Y139845D01*
X129068Y138867D01*
X129867Y138069D01*
X130844Y137505D01*
X131935Y137213D01*
X133063D01*
X134154Y137505D01*
X135132Y138069D01*
X135930Y138867D01*
X136494Y139845D01*
X136786Y140936D01*
Y142064D01*
X136494Y143155D01*
X135930Y144132D01*
X135132Y144931D01*
X134154Y145495D01*
X133063Y145787D01*
D02*
G37*
G36*
X73063D02*
X71935D01*
X70844Y145495D01*
X69867Y144931D01*
X69068Y144132D01*
X68504Y143155D01*
X68212Y142064D01*
Y140936D01*
X68504Y139845D01*
X69068Y138867D01*
X69867Y138069D01*
X70844Y137505D01*
X71935Y137213D01*
X73063D01*
X74154Y137505D01*
X75132Y138069D01*
X75930Y138867D01*
X76494Y139845D01*
X76787Y140936D01*
Y142064D01*
X76494Y143155D01*
X75930Y144132D01*
X75132Y144931D01*
X74154Y145495D01*
X73063Y145787D01*
D02*
G37*
G36*
X277470Y153362D02*
X276530D01*
X275662Y153003D01*
X274997Y152338D01*
X274638Y151470D01*
Y150855D01*
X271392Y147608D01*
X271052Y147100D01*
X270933Y146500D01*
Y138773D01*
X270497Y138338D01*
X270138Y137470D01*
Y136530D01*
X270497Y135662D01*
X271162Y134997D01*
X272030Y134638D01*
X272970D01*
X273838Y134997D01*
X274503Y135662D01*
X274862Y136530D01*
Y137470D01*
X274503Y138338D01*
X274067Y138773D01*
Y145851D01*
X276855Y148638D01*
X277470D01*
X278338Y148997D01*
X279003Y149662D01*
X279362Y150530D01*
Y151470D01*
X279003Y152338D01*
X278338Y153003D01*
X277470Y153362D01*
D02*
G37*
G36*
X195100Y132505D02*
Y130600D01*
X197005D01*
X196899Y130994D01*
X196560Y131581D01*
X196081Y132060D01*
X195494Y132399D01*
X195100Y132505D01*
D02*
G37*
G36*
X193900D02*
X193506Y132399D01*
X192919Y132060D01*
X192440Y131581D01*
X192101Y130994D01*
X191995Y130600D01*
X193900D01*
Y132505D01*
D02*
G37*
G36*
X197005Y129400D02*
X195100D01*
Y127495D01*
X195494Y127601D01*
X196081Y127940D01*
X196560Y128419D01*
X196899Y129006D01*
X197005Y129400D01*
D02*
G37*
G36*
X193900D02*
X191995D01*
X192101Y129006D01*
X192440Y128419D01*
X192919Y127940D01*
X193506Y127601D01*
X193900Y127495D01*
Y129400D01*
D02*
G37*
G36*
X133063Y135787D02*
X131935D01*
X130844Y135495D01*
X129867Y134931D01*
X129068Y134133D01*
X128504Y133155D01*
X128212Y132064D01*
Y130936D01*
X128504Y129845D01*
X129068Y128867D01*
X129867Y128069D01*
X130844Y127505D01*
X131935Y127213D01*
X133063D01*
X134154Y127505D01*
X135132Y128069D01*
X135930Y128867D01*
X136494Y129845D01*
X136786Y130936D01*
Y132064D01*
X136494Y133155D01*
X135930Y134133D01*
X135132Y134931D01*
X134154Y135495D01*
X133063Y135787D01*
D02*
G37*
G36*
X73063D02*
X71935D01*
X70844Y135495D01*
X69867Y134931D01*
X69068Y134133D01*
X68504Y133155D01*
X68212Y132064D01*
Y130936D01*
X68504Y129845D01*
X69068Y128867D01*
X69867Y128069D01*
X70844Y127505D01*
X71935Y127213D01*
X73063D01*
X74154Y127505D01*
X75132Y128069D01*
X75930Y128867D01*
X76494Y129845D01*
X76787Y130936D01*
Y132064D01*
X76494Y133155D01*
X75930Y134133D01*
X75132Y134931D01*
X74154Y135495D01*
X73063Y135787D01*
D02*
G37*
G36*
X133063Y125787D02*
X131935D01*
X130844Y125495D01*
X129867Y124931D01*
X129068Y124133D01*
X128504Y123155D01*
X128212Y122064D01*
Y120936D01*
X128504Y119845D01*
X129068Y118868D01*
X129867Y118069D01*
X130844Y117505D01*
X131935Y117213D01*
X133063D01*
X134154Y117505D01*
X135132Y118069D01*
X135930Y118868D01*
X136494Y119845D01*
X136786Y120936D01*
Y122064D01*
X136494Y123155D01*
X135930Y124133D01*
X135132Y124931D01*
X134154Y125495D01*
X133063Y125787D01*
D02*
G37*
G36*
X73063D02*
X71935D01*
X70844Y125495D01*
X69867Y124931D01*
X69068Y124133D01*
X68504Y123155D01*
X68212Y122064D01*
Y120936D01*
X68504Y119845D01*
X69068Y118868D01*
X69867Y118069D01*
X70844Y117505D01*
X71935Y117213D01*
X73063D01*
X74154Y117505D01*
X75132Y118069D01*
X75930Y118868D01*
X76494Y119845D01*
X76787Y120936D01*
Y122064D01*
X76494Y123155D01*
X75930Y124133D01*
X75132Y124931D01*
X74154Y125495D01*
X73063Y125787D01*
D02*
G37*
G36*
X123469Y222362D02*
X122529D01*
X121661Y222003D01*
X120996Y221338D01*
X120637Y220470D01*
Y219855D01*
X81003Y180221D01*
X80663Y179712D01*
X80544Y179112D01*
Y103949D01*
X80044Y103624D01*
X79469Y103862D01*
X78529D01*
X77661Y103503D01*
X77076Y102917D01*
X76547Y102959D01*
X76494Y103155D01*
X75930Y104132D01*
X75132Y104931D01*
X74154Y105495D01*
X73063Y105787D01*
X71935D01*
X70844Y105495D01*
X69867Y104931D01*
X69068Y104132D01*
X68504Y103155D01*
X68212Y102065D01*
Y100936D01*
X68504Y99845D01*
X69068Y98867D01*
X69867Y98069D01*
X70844Y97505D01*
X71935Y97213D01*
X73063D01*
X74154Y97505D01*
X75132Y98069D01*
X75930Y98867D01*
X76319Y99542D01*
X76819Y99408D01*
Y93592D01*
X76319Y93458D01*
X75930Y94133D01*
X75132Y94931D01*
X74154Y95495D01*
X73063Y95787D01*
X71935D01*
X70844Y95495D01*
X69867Y94931D01*
X69068Y94133D01*
X68504Y93155D01*
X68212Y92064D01*
Y90936D01*
X68504Y89845D01*
X69068Y88867D01*
X69867Y88069D01*
X70844Y87505D01*
X71935Y87213D01*
X73063D01*
X74154Y87505D01*
X75132Y88069D01*
X75930Y88867D01*
X76319Y89542D01*
X76819Y89408D01*
Y84017D01*
X76319Y83883D01*
X76100Y84263D01*
X75262Y85101D01*
X74236Y85693D01*
X73099Y85998D01*
Y81500D01*
Y77002D01*
X74236Y77307D01*
X75262Y77899D01*
X76100Y78737D01*
X76319Y79117D01*
X76819Y78983D01*
Y73592D01*
X76783Y73554D01*
X76273Y73538D01*
X75930Y74133D01*
X75132Y74931D01*
X74154Y75495D01*
X73063Y75787D01*
X71935D01*
X70844Y75495D01*
X69867Y74931D01*
X69068Y74133D01*
X68504Y73155D01*
X68212Y72065D01*
Y70936D01*
X68504Y69845D01*
X69068Y68867D01*
X69867Y68069D01*
X70844Y67505D01*
X71935Y67213D01*
X73063D01*
X74154Y67505D01*
X75132Y68069D01*
X75930Y68867D01*
X76494Y69845D01*
X76787Y70936D01*
Y72065D01*
X76690Y72426D01*
X77151Y72635D01*
X77279Y72444D01*
X84369Y65354D01*
X84877Y65014D01*
X85477Y64895D01*
X136636D01*
X137236Y65014D01*
X137744Y65354D01*
X139995Y67605D01*
X140335Y68114D01*
X140427Y68578D01*
X140759Y68812D01*
X140954Y68876D01*
X141529Y68638D01*
X142469D01*
X143337Y68997D01*
X144002Y69662D01*
X144361Y70530D01*
Y71470D01*
X144002Y72338D01*
X143567Y72773D01*
Y79252D01*
X145175Y80860D01*
X145758Y80737D01*
X145996Y80162D01*
X146661Y79497D01*
X147529Y79138D01*
X148469D01*
X149337Y79497D01*
X149772Y79932D01*
X194499D01*
X195099Y80052D01*
X195607Y80392D01*
X218074Y102858D01*
X218650D01*
X219518Y103217D01*
X220183Y103882D01*
X220543Y104750D01*
Y105690D01*
X220183Y106558D01*
X219518Y107222D01*
X218650Y107582D01*
X217711D01*
X216842Y107222D01*
X216178Y106558D01*
X215818Y105690D01*
Y105036D01*
X193850Y83068D01*
X149772D01*
X149337Y83503D01*
X148762Y83741D01*
X148639Y84324D01*
X176747Y112433D01*
X230726D01*
X231161Y111997D01*
X232029Y111638D01*
X232969D01*
X233837Y111997D01*
X234502Y112662D01*
X234861Y113530D01*
Y114470D01*
X234502Y115338D01*
X233837Y116003D01*
X232969Y116362D01*
X232029D01*
X231161Y116003D01*
X230726Y115568D01*
X176098D01*
X175498Y115448D01*
X174989Y115108D01*
X140954Y81073D01*
X140696Y81120D01*
X140454Y81257D01*
Y90738D01*
X185354Y135638D01*
X185969D01*
X186837Y135997D01*
X187502Y136662D01*
X187861Y137530D01*
Y138470D01*
X187502Y139338D01*
X186837Y140003D01*
X185969Y140362D01*
X185029D01*
X184161Y140003D01*
X183496Y139338D01*
X183137Y138470D01*
Y137855D01*
X137778Y92496D01*
X137439Y91988D01*
X137319Y91388D01*
Y69804D01*
X137286Y69782D01*
X136786Y70049D01*
Y75787D01*
X128212D01*
Y68030D01*
X86127D01*
X82139Y72018D01*
X82262Y72601D01*
X82837Y72839D01*
X83502Y73504D01*
X83861Y74372D01*
Y75312D01*
X83572Y76010D01*
X83679Y76546D01*
Y178463D01*
X122854Y217638D01*
X123469D01*
X124337Y217997D01*
X125002Y218662D01*
X125361Y219530D01*
Y220470D01*
X125002Y221338D01*
X124337Y222003D01*
X123469Y222362D01*
D02*
G37*
G36*
X93970Y182862D02*
X93030D01*
X92162Y182503D01*
X91497Y181838D01*
X91138Y180970D01*
Y180030D01*
X91497Y179162D01*
X91932Y178727D01*
Y150500D01*
X92052Y149900D01*
X92392Y149392D01*
X126138Y115645D01*
Y115030D01*
X126497Y114162D01*
X127162Y113497D01*
X128030Y113138D01*
X128089D01*
X128393Y112741D01*
X128212Y112065D01*
Y110936D01*
X128504Y109845D01*
X129068Y108868D01*
X129867Y108069D01*
X130844Y107505D01*
X131935Y107213D01*
X133063D01*
X134154Y107505D01*
X135132Y108069D01*
X135930Y108868D01*
X136494Y109845D01*
X136786Y110936D01*
Y112065D01*
X136494Y113155D01*
X135930Y114132D01*
X135132Y114931D01*
X134154Y115495D01*
X133063Y115787D01*
X131935D01*
X131259Y115606D01*
X130862Y115911D01*
Y115970D01*
X130503Y116838D01*
X129838Y117503D01*
X128970Y117862D01*
X128355D01*
X95068Y151149D01*
Y178727D01*
X95503Y179162D01*
X95862Y180030D01*
Y180970D01*
X95503Y181838D01*
X94838Y182503D01*
X93970Y182862D01*
D02*
G37*
G36*
X73063Y115787D02*
X71935D01*
X70844Y115495D01*
X69867Y114931D01*
X69068Y114132D01*
X68504Y113155D01*
X68212Y112065D01*
Y110936D01*
X68504Y109845D01*
X69068Y108868D01*
X69867Y108069D01*
X70844Y107505D01*
X71935Y107213D01*
X73063D01*
X74154Y107505D01*
X75132Y108069D01*
X75930Y108868D01*
X76494Y109845D01*
X76787Y110936D01*
Y112065D01*
X76494Y113155D01*
X75930Y114132D01*
X75132Y114931D01*
X74154Y115495D01*
X73063Y115787D01*
D02*
G37*
G36*
X133099Y105998D02*
Y102100D01*
X136997D01*
X136692Y103237D01*
X136100Y104263D01*
X135262Y105101D01*
X134236Y105693D01*
X133099Y105998D01*
D02*
G37*
G36*
X131899D02*
X130762Y105693D01*
X129736Y105101D01*
X128898Y104263D01*
X128306Y103237D01*
X128001Y102100D01*
X131899D01*
Y105998D01*
D02*
G37*
G36*
X136997Y100900D02*
X133099D01*
Y97002D01*
X134236Y97307D01*
X135262Y97899D01*
X136100Y98737D01*
X136692Y99763D01*
X136997Y100900D01*
D02*
G37*
G36*
X131899D02*
X128001D01*
X128306Y99763D01*
X128898Y98737D01*
X129736Y97899D01*
X130762Y97307D01*
X131899Y97002D01*
Y100900D01*
D02*
G37*
G36*
X133063Y95787D02*
X131935D01*
X130844Y95495D01*
X129867Y94931D01*
X129068Y94133D01*
X128504Y93155D01*
X128212Y92064D01*
Y90936D01*
X128504Y89845D01*
X129068Y88867D01*
X129867Y88069D01*
X130844Y87505D01*
X131935Y87213D01*
X133063D01*
X134154Y87505D01*
X135132Y88069D01*
X135930Y88867D01*
X136494Y89845D01*
X136786Y90936D01*
Y92064D01*
X136494Y93155D01*
X135930Y94133D01*
X135132Y94931D01*
X134154Y95495D01*
X133063Y95787D01*
D02*
G37*
G36*
X71899Y85998D02*
X70762Y85693D01*
X69736Y85101D01*
X68898Y84263D01*
X68306Y83237D01*
X68001Y82100D01*
X71899D01*
Y85998D01*
D02*
G37*
G36*
X366469Y148362D02*
X365529D01*
X364661Y148003D01*
X363997Y147338D01*
X363637Y146470D01*
Y145855D01*
X298850Y81068D01*
X243772D01*
X243337Y81503D01*
X242469Y81862D01*
X241529D01*
X240661Y81503D01*
X239997Y80838D01*
X239637Y79970D01*
Y79030D01*
X239997Y78162D01*
X240661Y77497D01*
X241529Y77138D01*
X242469D01*
X243337Y77497D01*
X243772Y77933D01*
X299499D01*
X300099Y78052D01*
X300607Y78392D01*
X365854Y143638D01*
X366469D01*
X367337Y143997D01*
X368002Y144662D01*
X368361Y145530D01*
Y146470D01*
X368002Y147338D01*
X367337Y148003D01*
X366469Y148362D01*
D02*
G37*
G36*
X133063Y85787D02*
X131935D01*
X130844Y85495D01*
X129867Y84931D01*
X129068Y84132D01*
X128504Y83155D01*
X128212Y82064D01*
Y80936D01*
X128504Y79845D01*
X129068Y78868D01*
X129867Y78069D01*
X130844Y77505D01*
X131935Y77213D01*
X133063D01*
X134154Y77505D01*
X135132Y78069D01*
X135930Y78868D01*
X136494Y79845D01*
X136786Y80936D01*
Y82064D01*
X136494Y83155D01*
X135930Y84132D01*
X135132Y84931D01*
X134154Y85495D01*
X133063Y85787D01*
D02*
G37*
G36*
X71899Y80900D02*
X68001D01*
X68306Y79763D01*
X68898Y78737D01*
X69736Y77899D01*
X70762Y77307D01*
X71899Y77002D01*
Y80900D01*
D02*
G37*
G36*
X382400Y19874D02*
X382126D01*
X380412Y19533D01*
X378797Y18864D01*
X377343Y17893D01*
X376107Y16657D01*
X375136Y15203D01*
X374467Y13589D01*
X374126Y11874D01*
Y11600D01*
X382400D01*
Y19874D01*
D02*
G37*
G36*
X11874D02*
X11600D01*
Y11600D01*
X19874D01*
Y11874D01*
X19533Y13589D01*
X18864Y15203D01*
X17893Y16657D01*
X16657Y17893D01*
X15203Y18864D01*
X13589Y19533D01*
X11874Y19874D01*
D02*
G37*
%LPD*%
D66*
X141250Y195250D02*
X141500Y195500D01*
X194500Y130000D02*
X194750Y130250D01*
Y149750D02*
X195000Y150000D01*
X204500Y149000D02*
X204750Y149250D01*
X223250D02*
X223500Y149500D01*
X78387Y73553D02*
X85477Y66463D01*
X78387Y73553D02*
Y100441D01*
X85477Y66463D02*
X136636D01*
X78999Y101054D02*
Y101500D01*
X81815Y76249D02*
X82111Y76546D01*
Y179112D01*
X78387Y100441D02*
X78999Y101054D01*
X81815Y75158D02*
Y76249D01*
X81499Y74842D02*
X81815Y75158D01*
X93500Y150500D02*
X128500Y115500D01*
X93500Y150500D02*
Y180500D01*
X82111Y179112D02*
X122999Y220000D01*
X272500Y146500D02*
X277000Y151000D01*
X272500Y137000D02*
Y146500D01*
X138887Y68714D02*
Y91388D01*
X185499Y138000D01*
X136636Y66463D02*
X138887Y68714D01*
X176098Y114000D02*
X232499D01*
X141999Y79901D02*
X176098Y114000D01*
X194499Y81500D02*
X218180Y105181D01*
Y105220D01*
X141999Y71000D02*
Y79901D01*
X147999Y81500D02*
X194499D01*
X299499Y79500D02*
X365999Y146000D01*
X241999Y79500D02*
X299499D01*
D67*
X72499Y211500D02*
D03*
Y201500D02*
D03*
Y191500D02*
D03*
Y181500D02*
D03*
Y171500D02*
D03*
Y161500D02*
D03*
Y151500D02*
D03*
Y141500D02*
D03*
Y131500D02*
D03*
Y121500D02*
D03*
Y111500D02*
D03*
Y101500D02*
D03*
Y91500D02*
D03*
Y81500D02*
D03*
Y71500D02*
D03*
X132499Y211500D02*
D03*
Y201500D02*
D03*
Y191500D02*
D03*
Y181500D02*
D03*
Y171500D02*
D03*
Y161500D02*
D03*
Y151500D02*
D03*
Y141500D02*
D03*
Y131500D02*
D03*
Y121500D02*
D03*
Y111500D02*
D03*
Y101500D02*
D03*
Y91500D02*
D03*
Y81500D02*
D03*
D68*
Y71500D02*
D03*
D69*
X342999Y256500D02*
D03*
X362499D02*
D03*
X245999Y254000D02*
D03*
X265499D02*
D03*
D70*
X34499Y194500D02*
D03*
D71*
X44499D02*
D03*
X54499D02*
D03*
D72*
X383000Y260500D02*
D03*
Y11000D02*
D03*
X11000D02*
D03*
Y260500D02*
D03*
D73*
X141125Y183513D02*
D03*
X149000Y171500D02*
D03*
X141500Y195500D02*
D03*
X195000Y150000D02*
D03*
X194500Y130000D02*
D03*
X204500Y149000D02*
D03*
X223500Y149500D02*
D03*
X81499Y74842D02*
D03*
X93500Y180500D02*
D03*
X128500Y115500D02*
D03*
X277000Y151000D02*
D03*
X272500Y137000D02*
D03*
X78999Y101500D02*
D03*
X185499Y138000D02*
D03*
X232499Y114000D02*
D03*
X218180Y105220D02*
D03*
X141999Y71000D02*
D03*
X365999Y146000D02*
D03*
X241999Y79500D02*
D03*
X122999Y220000D02*
D03*
X147999Y81500D02*
D03*
M02*
