M48
;Layer_Color=9474304
;FILE_FORMAT=2:5
INCH,LZ
;TYPE=PLATED
T1F00S00C0.01181
T2F00S00C0.03150
T3F00S00C0.03543
T4F00S00C0.04724
%
T01
X0345Y04305
X0377
T02
X0236626Y0319657
X02445
X0252374
Y0339342
X02445
X0236626
Y0360407
X02445
X0252374
Y0380093
X02445
X0236626
Y0401158
X02445
X0252374
Y0420843
X02445
X0236626
T03
X023047Y04495
X0250155
X0461Y03695
Y03595
Y03495
Y03395
T04
X0341315Y03825
X0351157
X0361
M30
